<?xml version="1.0" encoding="UTF-8" standalone="no"?>
<svg
   height="61.101139"
   width="935.38489"
   xml:space="preserve"
   version="1.1"
   id="svg84"
   sodipodi:docname="bande.svg"
   inkscape:version="1.2.2 (b0a84865, 2022-12-01)"
   xmlns:inkscape="http://www.inkscape.org/namespaces/inkscape"
   xmlns:sodipodi="http://sodipodi.sourceforge.net/DTD/sodipodi-0.dtd"
   xmlns="http://www.w3.org/2000/svg"
   xmlns:svg="http://www.w3.org/2000/svg"><defs
     id="defs88" /><sodipodi:namedview
     id="namedview86"
     pagecolor="#505050"
     bordercolor="#eeeeee"
     borderopacity="1"
     inkscape:showpageshadow="0"
     inkscape:pageopacity="0"
     inkscape:pagecheckerboard="0"
     inkscape:deskcolor="#505050"
     showgrid="false"
     inkscape:zoom="0.66449955"
     inkscape:cx="359.66917"
     inkscape:cy="42.136974"
     inkscape:window-width="1440"
     inkscape:window-height="456"
     inkscape:window-x="0"
     inkscape:window-y="25"
     inkscape:window-maximized="0"
     inkscape:current-layer="svg84" /><path
     style="fill:#e7e0da;fill-opacity:1;fill-rule:nonzero;stroke:none;stroke-width:0.13333"
     d="M 76.872611,61.101139 H 0 V 0 H 51.894569 V 42.996258 H 17.359566 V 18.080881 h 17.263035 v 7.9998 h -9.263235 v 8.915777 H 43.894769 V 7.9998 H 7.9998 v 45.101539 h 68.872811 v 7.9998"
     id="path24"
     sodipodi:nodetypes="ccccccccccccccccc" /><path
     style="fill:#e7e0da;fill-opacity:1;fill-rule:nonzero;stroke:none;stroke-width:0.13333"
     d="M 142.91936,61.101139 H 66.045815 v -7.9998 H 134.91956 V 7.9998 H 99.023658 v 26.996658 h 18.535002 v -8.915777 h -9.26243 v -7.9998 h 17.26223 V 42.996258 H 91.023858 V 0 h 51.895502 v 61.101139"
     id="path26"
     sodipodi:nodetypes="ccccccccccccccccc" /><path
     style="fill:#e7e0da;fill-opacity:1;fill-rule:nonzero;stroke:none;stroke-width:0.13333"
     d="m 68.924943,34.748465 h 5.975318 v -5.975851 h -5.975318 z m 13.975118,7.9998 H 60.925144 V 20.772814 H 82.900061 V 42.748265 M 235.36638,61.101139 H 158.4923 V 0 h 51.89604 V 42.996258 H 175.8532 V 18.080881 h 17.26357 v 7.9998 H 183.853 v 8.915777 h 18.53554 V 7.9998 H 166.4921 v 45.101539 h 68.87428 v 7.9998"
     id="path28"
     sodipodi:nodetypes="ccccccccccccccccccccccccccc" /><path
     style="fill:#e7e0da;fill-opacity:1;fill-rule:nonzero;stroke:none;stroke-width:0.13333"
     d="m 301.4114,61.101139 h -76.87275 v -7.9998 H 293.4116 V 7.9998 h -35.8951 v 26.996658 h 18.53553 v -8.915777 h -9.26377 v -7.9998 h 17.26357 V 42.996258 H 249.5167 V 0 h 51.8947 v 61.101139"
     id="path30"
     sodipodi:nodetypes="ccccccccccccccccc" /><path
     style="fill:#e7e0da;fill-opacity:1;fill-rule:nonzero;stroke:none;stroke-width:0.13333"
     d="m 227.41725,34.748465 h 5.97585 v -5.975851 h -5.97585 z m 13.97565,7.9998 H 219.41745 V 20.772814 H 241.3929 V 42.748265 M 393.85975,61.101139 H 316.98568 V 0 h 51.8947 V 42.996258 H 334.34657 V 18.080881 h 17.26224 v 7.9998 h -9.26244 v 8.915777 h 18.53421 V 7.9998 h -35.8951 v 45.101539 h 68.87427 v 7.9998"
     id="path32"
     sodipodi:nodetypes="ccccccccccccccccccccccccccc" /><path
     style="fill:#e7e0da;fill-opacity:1;fill-rule:nonzero;stroke:none;stroke-width:0.13333"
     d="m 459.90477,61.101139 h -76.87141 v -7.9998 h 68.87161 V 7.9998 h -35.8951 v 26.996658 h 18.53553 v -8.915777 h -9.26243 v -7.9998 H 442.5452 V 42.996258 H 408.01007 V 0 h 51.8947 v 61.101139"
     id="path34"
     sodipodi:nodetypes="ccccccccccccccccc" /><path
     style="fill:#e7e0da;fill-opacity:1;fill-rule:nonzero;stroke:none;stroke-width:0.13333"
     d="m 385.91062,34.748465 h 5.97585 v -5.975851 h -5.97585 z m 13.97565,7.9998 H 377.91082 V 20.772814 h 21.97545 V 42.748265 M 552.35179,61.101139 H 475.47905 V 0 h 51.8947 v 42.996258 h -34.5338 V 18.080881 h 17.26223 v 7.9998 h -9.26243 v 8.915777 h 18.5342 V 7.9998 h -35.8951 v 45.101539 h 68.87294 v 7.9998"
     id="path36"
     sodipodi:nodetypes="ccccccccccccccccccccccccccc" /><path
     style="fill:#e7e0da;fill-opacity:1;fill-rule:nonzero;stroke:none;stroke-width:0.13333"
     d="m 618.39814,61.101139 h -76.87275 v -7.9998 h 68.87295 V 7.9998 h -35.8951 v 26.996658 h 18.53553 v -8.915777 h -9.26243 v -7.9998 h 17.26223 V 42.996258 H 566.50344 V 0 h 51.8947 v 61.101139"
     id="path38"
     sodipodi:nodetypes="ccccccccccccccccc" /><path
     style="fill:#e7e0da;fill-opacity:1;fill-rule:nonzero;stroke:none;stroke-width:0.13333"
     d="m 544.40399,34.748465 h 5.97585 v -5.975851 h -5.97585 z m 13.97565,7.9998 H 536.40419 V 20.772814 h 21.97545 V 42.748265 M 710.84516,61.101139 H 633.97242 V 0 h 51.8947 V 42.996258 H 651.33198 V 18.080881 h 17.26357 v 7.9998 h -9.26377 v 8.915777 h 18.53554 V 7.9998 h -35.8951 v 45.101539 h 68.87294 v 7.9998"
     id="path40"
     sodipodi:nodetypes="ccccccccccccccccccccccccccc" /><path
     style="fill:#e7e0da;fill-opacity:1;fill-rule:nonzero;stroke:none;stroke-width:0.13333"
     d="m 776.89151,61.101139 h -76.87274 v -7.9998 h 68.87294 V 7.9998 h -35.8951 v 26.996658 h 18.53553 v -8.915777 h -9.26376 v -7.9998 h 17.26356 V 42.996258 H 724.99681 V 0 h 51.8947 v 61.101139"
     id="path42"
     sodipodi:nodetypes="ccccccccccccccccc" /><path
     style="fill:#e7e0da;fill-opacity:1;fill-rule:nonzero;stroke:none;stroke-width:0.13333"
     d="m 702.89736,34.748465 h 5.97585 v -5.975851 h -5.97585 z m 13.97565,7.9998 H 694.89756 V 20.772814 h 21.97545 V 42.748265 M 869.33853,61.101139 H 792.46579 V 0 h 51.8947 v 42.996258 h -34.5338 V 18.080881 h 17.26223 v 7.9998 h -9.26243 v 8.915777 h 18.5342 V 7.9998 h -35.8951 v 45.101539 h 68.87294 v 7.9998"
     id="path44"
     sodipodi:nodetypes="ccccccccccccccccccccccccccc" /><path
     style="fill:#e7e0da;fill-opacity:1;fill-rule:nonzero;stroke:none;stroke-width:0.13333"
     d="m 935.38488,61.101139 h -76.87274 v -7.9998 h 68.87294 V 7.9998 h -35.8951 v 26.996658 h 18.53554 v -8.915777 h -9.26377 v -7.9998 h 17.26357 V 42.996258 H 883.49018 V 0 h 51.8947 v 61.101139"
     id="path46"
     sodipodi:nodetypes="ccccccccccccccccc" /><path
     style="fill:#e7e0da;fill-opacity:1;fill-rule:nonzero;stroke:none;stroke-width:0.13333"
     d="m 861.39073,34.748465 h 5.97585 v -5.975851 h -5.97585 z m 13.97565,7.9998 H 853.39093 V 20.772814 h 21.97545 v 21.975451"
     id="path48"
     sodipodi:nodetypes="cccccccccc" /></svg>
